<?xml version="1.0" encoding="UTF-8" standalone="no"?>
<!DOCTYPE svg PUBLIC "-//W3C//DTD SVG 1.1//EN"
 "http://www.w3.org/Graphics/SVG/1.1/DTD/svg11.dtd">
<!-- Generated by graphviz version 5.0.0 (0)
 -->
<!-- Title: ir Pages: 1 -->
<svg width="1387pt" height="1052pt"
 viewBox="0.00 0.00 1386.64 1052.00" xmlns="http://www.w3.org/2000/svg" xmlns:xlink="http://www.w3.org/1999/xlink">
<g id="graph0" class="graph" transform="scale(1 1) rotate(0) translate(4 1048)">
<title>ir</title>
<polygon fill="white" stroke="transparent" points="-4,4 -4,-1048 1382.64,-1048 1382.64,4 -4,4"/>
<!-- c9 -->
<g id="node1" class="node">
<title>c9</title>
<ellipse fill="yellow" stroke="black" cx="302" cy="-1026" rx="91.78" ry="18"/>
<text text-anchor="middle" x="302" y="-1022.3" font-family="Times,serif" font-size="14.00">C9: CONST I32(1000)</text>
</g>
<!-- n19 -->
<g id="node32" class="node">
<title>n19</title>
<polygon fill="deepskyblue" stroke="black" points="216,-540 128.86,-522 216,-504 303.14,-522 216,-540"/>
<text text-anchor="middle" x="216" y="-518.3" font-family="Times,serif" font-size="14.00">19: GT BOOL</text>
</g>
<!-- c9&#45;&gt;n19 -->
<g id="edge35" class="edge">
<title>c9&#45;&gt;n19</title>
<path fill="none" stroke="blue" d="M308.56,-1007.77C328.18,-953.78 382.85,-783.41 347,-648 337.57,-612.4 331.85,-602.23 306,-576 290.86,-560.64 270.35,-548.1 252.74,-539.09"/>
<polygon fill="blue" stroke="blue" points="253.82,-535.73 243.3,-534.45 250.73,-542.01 253.82,-535.73"/>
</g>
<!-- c8 -->
<g id="node2" class="node">
<title>c8</title>
<ellipse fill="yellow" stroke="black" cx="623" cy="-306" rx="106.68" ry="18"/>
<text text-anchor="middle" x="623" y="-302.3" font-family="Times,serif" font-size="14.00">C8: CONST DOUBLE(16)</text>
</g>
<!-- n14 -->
<g id="node27" class="node">
<title>n14</title>
<polygon fill="deepskyblue" stroke="black" points="623,-252 535.86,-234 623,-216 710.14,-234 623,-252"/>
<text text-anchor="middle" x="623" y="-230.3" font-family="Times,serif" font-size="14.00">14: GT BOOL</text>
</g>
<!-- c8&#45;&gt;n14 -->
<g id="edge27" class="edge">
<title>c8&#45;&gt;n14</title>
<path fill="none" stroke="blue" d="M623,-287.7C623,-279.98 623,-270.71 623,-262.11"/>
<polygon fill="blue" stroke="blue" points="626.5,-262.1 623,-252.1 619.5,-262.1 626.5,-262.1"/>
</g>
<!-- c7 -->
<g id="node3" class="node">
<title>c7</title>
<ellipse fill="yellow" stroke="black" cx="145" cy="-666" rx="78.79" ry="18"/>
<text text-anchor="middle" x="145" y="-662.3" font-family="Times,serif" font-size="14.00">C7: CONST I32(1)</text>
</g>
<!-- n10 -->
<g id="node23" class="node">
<title>n10</title>
<polygon fill="deepskyblue" stroke="black" points="216,-612 135.23,-594 216,-576 296.77,-594 216,-612"/>
<text text-anchor="middle" x="216" y="-590.3" font-family="Times,serif" font-size="14.00">10: ADD I32</text>
</g>
<!-- c7&#45;&gt;n10 -->
<g id="edge19" class="edge">
<title>c7&#45;&gt;n10</title>
<path fill="none" stroke="blue" d="M161.83,-648.41C171.59,-638.78 184,-626.55 194.47,-616.23"/>
<polygon fill="blue" stroke="blue" points="197.03,-618.62 201.69,-609.11 192.11,-613.64 197.03,-618.62"/>
</g>
<!-- c6 -->
<g id="node4" class="node">
<title>c6</title>
<ellipse fill="yellow" stroke="black" cx="169" cy="-738" rx="78.79" ry="18"/>
<text text-anchor="middle" x="169" y="-734.3" font-family="Times,serif" font-size="14.00">C6: CONST I32(0)</text>
</g>
<!-- n22 -->
<g id="node11" class="node">
<title>n22</title>
<path fill="red" stroke="black" d="M110,-36C110,-36 42,-36 42,-36 36,-36 30,-30 30,-24 30,-24 30,-12 30,-12 30,-6 36,0 42,0 42,0 110,0 110,0 116,0 122,-6 122,-12 122,-12 122,-24 122,-24 122,-30 116,-36 110,-36"/>
<text text-anchor="middle" x="76" y="-14.3" font-family="Times,serif" font-size="14.00">22: RETURN</text>
</g>
<!-- c6&#45;&gt;n22 -->
<g id="edge40" class="edge">
<title>c6&#45;&gt;n22</title>
<path fill="none" stroke="blue" d="M118.47,-724.13C96.51,-716.06 72.35,-703.4 57,-684 31.9,-652.29 38,-635.45 38,-595 38,-595 38,-595 38,-161 38,-119.63 53.23,-73.72 64.41,-45.61"/>
<polygon fill="blue" stroke="blue" points="67.76,-46.67 68.31,-36.09 61.28,-44.02 67.76,-46.67"/>
</g>
<!-- n9 -->
<g id="node22" class="node">
<title>n9</title>
<ellipse fill="deepskyblue" stroke="black" cx="290" cy="-666" rx="48.19" ry="18"/>
<text text-anchor="middle" x="290" y="-662.3" font-family="Times,serif" font-size="14.00">9: PHI I32</text>
</g>
<!-- c6&#45;&gt;n9 -->
<g id="edge16" class="edge">
<title>c6&#45;&gt;n9</title>
<path fill="none" stroke="blue" d="M196.46,-721.12C214.07,-710.92 237.08,-697.61 255.87,-686.74"/>
<polygon fill="blue" stroke="blue" points="257.81,-689.66 264.72,-681.63 254.31,-683.61 257.81,-689.66"/>
</g>
<!-- c5 -->
<g id="node5" class="node">
<title>c5</title>
<ellipse fill="yellow" stroke="black" cx="865" cy="-810" rx="102.88" ry="18"/>
<text text-anchor="middle" x="865" y="-806.3" font-family="Times,serif" font-size="14.00">C5: CONST DOUBLE(0)</text>
</g>
<!-- n7 -->
<g id="node18" class="node">
<title>n7</title>
<ellipse fill="deepskyblue" stroke="black" cx="768" cy="-450" rx="72.29" ry="18"/>
<text text-anchor="middle" x="768" y="-446.3" font-family="Times,serif" font-size="14.00">7: PHI DOUBLE</text>
</g>
<!-- c5&#45;&gt;n7 -->
<g id="edge10" class="edge">
<title>c5&#45;&gt;n7</title>
<path fill="none" stroke="blue" d="M805.4,-795.27C744.25,-777.23 658,-739.02 658,-667 658,-667 658,-667 658,-593 658,-549.63 670.98,-537.92 698,-504 707.64,-491.89 720.65,-481.05 732.84,-472.37"/>
<polygon fill="blue" stroke="blue" points="734.82,-475.26 741.09,-466.72 730.87,-469.48 734.82,-475.26"/>
</g>
<!-- n8 -->
<g id="node20" class="node">
<title>n8</title>
<ellipse fill="deepskyblue" stroke="black" cx="543" cy="-738" rx="72.29" ry="18"/>
<text text-anchor="middle" x="543" y="-734.3" font-family="Times,serif" font-size="14.00">8: PHI DOUBLE</text>
</g>
<!-- c5&#45;&gt;n8 -->
<g id="edge13" class="edge">
<title>c5&#45;&gt;n8</title>
<path fill="none" stroke="blue" d="M803.3,-795.59C746.45,-783.23 662.5,-764.98 605.42,-752.57"/>
<polygon fill="blue" stroke="blue" points="605.96,-749.11 595.44,-750.4 604.47,-755.95 605.96,-749.11"/>
</g>
<!-- c4 -->
<g id="node6" class="node">
<title>c4</title>
<ellipse fill="yellow" stroke="black" cx="1030" cy="-954" rx="109.38" ry="18"/>
<text text-anchor="middle" x="1030" y="-950.3" font-family="Times,serif" font-size="14.00">C4: CONST DOUBLE(0.5)</text>
</g>
<!-- n4 -->
<g id="node14" class="node">
<title>n4</title>
<polygon fill="deepskyblue" stroke="black" points="1031,-900 924.26,-882 1031,-864 1137.74,-882 1031,-900"/>
<text text-anchor="middle" x="1031" y="-878.3" font-family="Times,serif" font-size="14.00">4: SUB DOUBLE</text>
</g>
<!-- c4&#45;&gt;n4 -->
<g id="edge5" class="edge">
<title>c4&#45;&gt;n4</title>
<path fill="none" stroke="blue" d="M1030.25,-935.7C1030.36,-927.98 1030.49,-918.71 1030.61,-910.11"/>
<polygon fill="blue" stroke="blue" points="1034.11,-910.15 1030.76,-900.1 1027.11,-910.05 1034.11,-910.15"/>
</g>
<!-- c3 -->
<g id="node7" class="node">
<title>c3</title>
<ellipse fill="yellow" stroke="black" cx="473" cy="-162" rx="90.98" ry="18"/>
<text text-anchor="middle" x="473" y="-158.3" font-family="Times,serif" font-size="14.00">C3: CONST BOOL(1)</text>
</g>
<!-- c2 -->
<g id="node8" class="node">
<title>c2</title>
<ellipse fill="yellow" stroke="black" cx="416" cy="-18" rx="90.98" ry="18"/>
<text text-anchor="middle" x="416" y="-14.3" font-family="Times,serif" font-size="14.00">C2: CONST BOOL(0)</text>
</g>
<!-- c1 -->
<g id="node9" class="node">
<title>c1</title>
<ellipse fill="yellow" stroke="black" cx="1287" cy="-882" rx="91.78" ry="18"/>
<text text-anchor="middle" x="1287" y="-878.3" font-family="Times,serif" font-size="14.00">C1: CONST ADDR(0)</text>
</g>
<!-- n1 -->
<g id="node10" class="node">
<title>n1</title>
<path fill="red" stroke="black" d="M474,-1044C474,-1044 424,-1044 424,-1044 418,-1044 412,-1038 412,-1032 412,-1032 412,-1020 412,-1020 412,-1014 418,-1008 424,-1008 424,-1008 474,-1008 474,-1008 480,-1008 486,-1014 486,-1020 486,-1020 486,-1032 486,-1032 486,-1038 480,-1044 474,-1044"/>
<text text-anchor="middle" x="449" y="-1022.3" font-family="Times,serif" font-size="14.00">1: START</text>
</g>
<!-- n1&#45;&gt;n22 -->
<g id="edge1" class="edge">
<title>n1&#45;&gt;n22</title>
<path fill="none" stroke="black" stroke-dasharray="5,2" d="M411.87,-1010.77C304.3,-966.84 0,-822.47 0,-595 0,-595 0,-595 0,-161 0,-115.64 30.52,-70.75 52.88,-43.95"/>
<polygon fill="black" stroke="black" points="55.64,-46.09 59.51,-36.23 50.34,-41.53 55.64,-46.09"/>
</g>
<!-- n5 -->
<g id="node15" class="node">
<title>n5</title>
<polygon fill="lightcoral" stroke="black" points="439.5,-828 380.5,-828 380.5,-792 439.5,-792 439.5,-828"/>
<text text-anchor="middle" x="410" y="-806.3" font-family="Times,serif" font-size="14.00">5: END</text>
</g>
<!-- n1&#45;&gt;n5 -->
<g id="edge6" class="edge">
<title>n1&#45;&gt;n5</title>
<path fill="none" stroke="red" stroke-width="2" d="M442.11,-1007.59C438.32,-997.37 433.82,-984.12 431,-972 420.21,-925.63 414.52,-870.36 411.89,-838.12"/>
<polygon fill="red" stroke="red" stroke-width="2" points="415.38,-837.82 411.12,-828.12 408.4,-838.36 415.38,-837.82"/>
</g>
<!-- n17 -->
<g id="node30" class="node">
<title>n17</title>
<path fill="red" stroke="black" d="M295,-36C295,-36 227,-36 227,-36 221,-36 215,-30 215,-24 215,-24 215,-12 215,-12 215,-6 221,0 227,0 227,0 295,0 295,0 301,0 307,-6 307,-12 307,-12 307,-24 307,-24 307,-30 301,-36 295,-36"/>
<text text-anchor="middle" x="261" y="-14.3" font-family="Times,serif" font-size="14.00">17: RETURN</text>
</g>
<!-- n22&#45;&gt;n17 -->
<g id="edge41" class="edge">
<title>n22&#45;&gt;n17</title>
<path fill="none" stroke="black" stroke-dasharray="5,2" d="M122.25,-18C149.76,-18 177.28,-18 204.79,-18"/>
<polygon fill="black" stroke="black" points="204.93,-21.5 214.93,-18 204.93,-14.5 204.93,-21.5"/>
</g>
<!-- n2 -->
<g id="node12" class="node">
<title>n2</title>
<ellipse fill="lightblue" stroke="black" cx="1167" cy="-738" rx="104.78" ry="18"/>
<text text-anchor="middle" x="1167" y="-734.3" font-family="Times,serif" font-size="14.00">2: PARAM DOUBLE &quot;x&quot;</text>
</g>
<!-- n2&#45;&gt;n1 -->
<g id="edge2" class="edge">
<title>n2&#45;&gt;n1</title>
<path fill="none" stroke="black" stroke-dasharray="5,2" d="M1168.33,-756.3C1171.68,-805.07 1178.15,-942.02 1148,-972 1101.91,-1017.83 646.01,-1024.08 496.33,-1024.89"/>
<polygon fill="black" stroke="black" points="496.08,-1021.39 486.09,-1024.94 496.11,-1028.39 496.08,-1021.39"/>
</g>
<!-- n28 -->
<g id="node19" class="node">
<title>n28</title>
<polygon fill="deepskyblue" stroke="black" points="839,-540 724.21,-522 839,-504 953.79,-522 839,-540"/>
<text text-anchor="middle" x="839" y="-518.3" font-family="Times,serif" font-size="14.00">28: ADD DOUBLE</text>
</g>
<!-- n2&#45;&gt;n28 -->
<g id="edge52" class="edge">
<title>n2&#45;&gt;n28</title>
<path fill="none" stroke="blue" d="M1149.09,-720.14C1114.99,-688.68 1037.48,-620.24 963,-576 937.5,-560.85 906.87,-547.72 882.44,-538.31"/>
<polygon fill="blue" stroke="blue" points="883.65,-535.03 873.06,-534.77 881.18,-541.58 883.65,-535.03"/>
</g>
<!-- n3 -->
<g id="node13" class="node">
<title>n3</title>
<ellipse fill="lightblue" stroke="black" cx="797" cy="-954" rx="104.78" ry="18"/>
<text text-anchor="middle" x="797" y="-950.3" font-family="Times,serif" font-size="14.00">3: PARAM DOUBLE &quot;y&quot;</text>
</g>
<!-- n3&#45;&gt;n1 -->
<g id="edge3" class="edge">
<title>n3&#45;&gt;n1</title>
<path fill="none" stroke="black" stroke-dasharray="5,2" d="M731.67,-968.14C663.17,-981.92 557.19,-1003.24 496.34,-1015.48"/>
<polygon fill="black" stroke="black" points="495.36,-1012.11 486.24,-1017.51 496.74,-1018.97 495.36,-1012.11"/>
</g>
<!-- n3&#45;&gt;n4 -->
<g id="edge4" class="edge">
<title>n3&#45;&gt;n4</title>
<path fill="none" stroke="blue" d="M846.91,-938.07C887.75,-925.85 945.05,-908.71 984.83,-896.81"/>
<polygon fill="blue" stroke="blue" points="985.97,-900.12 994.54,-893.91 983.96,-893.42 985.97,-900.12"/>
</g>
<!-- n26 -->
<g id="node21" class="node">
<title>n26</title>
<polygon fill="deepskyblue" stroke="black" points="629,-828 514.21,-810 629,-792 743.79,-810 629,-828"/>
<text text-anchor="middle" x="629" y="-806.3" font-family="Times,serif" font-size="14.00">26: ADD DOUBLE</text>
</g>
<!-- n4&#45;&gt;n26 -->
<g id="edge48" class="edge">
<title>n4&#45;&gt;n26</title>
<path fill="none" stroke="blue" d="M981.3,-872.35C907.77,-859.54 770.12,-835.57 690.39,-821.69"/>
<polygon fill="blue" stroke="blue" points="690.94,-818.23 680.49,-819.97 689.74,-825.13 690.94,-818.23"/>
</g>
<!-- n6 -->
<g id="node16" class="node">
<title>n6</title>
<polygon fill="lightcoral" stroke="black" points="450,-252 336,-252 336,-216 450,-216 450,-252"/>
<text text-anchor="middle" x="393" y="-230.3" font-family="Times,serif" font-size="14.00">6: LOOP_BEGIN</text>
</g>
<!-- n5&#45;&gt;n6 -->
<g id="edge7" class="edge">
<title>n5&#45;&gt;n6</title>
<path fill="none" stroke="red" stroke-width="2" d="M410.4,-791.95C410.98,-765.29 412,-712.12 412,-667 412,-667 412,-667 412,-377 412,-336.86 404.45,-290.9 398.87,-262.4"/>
<polygon fill="red" stroke="red" stroke-width="2" points="402.26,-261.5 396.84,-252.39 395.39,-262.88 402.26,-261.5"/>
</g>
<!-- n15 -->
<g id="node28" class="node">
<title>n15</title>
<polygon fill="lightcoral" stroke="black" points="364,-180 310,-180 310,-144 364,-144 364,-180"/>
<text text-anchor="middle" x="337" y="-158.3" font-family="Times,serif" font-size="14.00">15: IF</text>
</g>
<!-- n6&#45;&gt;n15 -->
<g id="edge28" class="edge">
<title>n6&#45;&gt;n15</title>
<path fill="none" stroke="red" stroke-width="2" d="M379.16,-215.7C372.51,-207.39 364.42,-197.28 357.11,-188.14"/>
<polygon fill="red" stroke="red" stroke-width="2" points="359.66,-185.73 350.68,-180.1 354.2,-190.1 359.66,-185.73"/>
</g>
<!-- n29 -->
<g id="node17" class="node">
<title>n29</title>
<polygon fill="lightcoral" stroke="black" points="345.5,-324 238.5,-324 238.5,-288 345.5,-288 345.5,-324"/>
<text text-anchor="middle" x="292" y="-302.3" font-family="Times,serif" font-size="14.00">29: LOOP_END</text>
</g>
<!-- n29&#45;&gt;n6 -->
<g id="edge8" class="edge">
<title>n29&#45;&gt;n6</title>
<path fill="none" stroke="red" stroke-width="2" d="M316.71,-287.88C329.67,-278.89 345.73,-267.76 359.77,-258.03"/>
<polygon fill="red" stroke="red" stroke-width="2" points="361.97,-260.76 368.2,-252.19 357.98,-255.01 361.97,-260.76"/>
</g>
<!-- n7&#45;&gt;n6 -->
<g id="edge9" class="edge">
<title>n7&#45;&gt;n6</title>
<path fill="none" stroke="black" stroke-dasharray="5,2" d="M730.58,-434.56C678.47,-413.69 581.99,-372.26 507,-324 486.04,-310.51 483.55,-303.46 464,-288 451.35,-278 437.16,-267.3 424.81,-258.16"/>
<polygon fill="black" stroke="black" points="426.72,-255.22 416.59,-252.1 422.57,-260.85 426.72,-255.22"/>
</g>
<!-- n12 -->
<g id="node25" class="node">
<title>n12</title>
<polygon fill="deepskyblue" stroke="black" points="851,-396 735.37,-378 851,-360 966.63,-378 851,-396"/>
<text text-anchor="middle" x="851" y="-374.3" font-family="Times,serif" font-size="14.00">12: MUL DOUBLE</text>
</g>
<!-- n7&#45;&gt;n12 -->
<g id="edge22" class="edge">
<title>n7&#45;&gt;n12</title>
<path fill="none" stroke="blue" d="M782.21,-432.05C792.99,-422.07 807.94,-409.38 821.22,-398.92"/>
<polygon fill="blue" stroke="blue" points="823.45,-401.62 829.22,-392.74 819.17,-396.08 823.45,-401.62"/>
</g>
<!-- n7&#45;&gt;n12 -->
<g id="edge23" class="edge">
<title>n7&#45;&gt;n12</title>
<path fill="none" stroke="blue" d="M793.05,-432.76C805.32,-423.31 819.77,-411.27 831.25,-400.98"/>
<polygon fill="blue" stroke="blue" points="833.66,-403.52 838.67,-394.19 828.93,-398.36 833.66,-403.52"/>
</g>
<!-- n24 -->
<g id="node36" class="node">
<title>n24</title>
<polygon fill="deepskyblue" stroke="black" points="828,-684 712.37,-666 828,-648 943.63,-666 828,-684"/>
<text text-anchor="middle" x="828" y="-662.3" font-family="Times,serif" font-size="14.00">24: MUL DOUBLE</text>
</g>
<!-- n7&#45;&gt;n24 -->
<g id="edge43" class="edge">
<title>n7&#45;&gt;n24</title>
<path fill="none" stroke="blue" d="M744.91,-467.08C733.6,-476.4 721.13,-489.21 715,-504 696.63,-548.35 689.25,-571.49 715,-612 727.5,-631.67 749.43,-644.16 770.67,-652.04"/>
<polygon fill="blue" stroke="blue" points="769.75,-655.43 780.35,-655.35 772.02,-648.8 769.75,-655.43"/>
</g>
<!-- n28&#45;&gt;n7 -->
<g id="edge11" class="edge">
<title>n28&#45;&gt;n7</title>
<path fill="none" stroke="blue" d="M823.94,-506.15C814.71,-497.05 802.67,-485.18 792.13,-474.79"/>
<polygon fill="blue" stroke="blue" points="794.35,-472.07 784.78,-467.54 789.44,-477.05 794.35,-472.07"/>
</g>
<!-- n8&#45;&gt;n6 -->
<g id="edge12" class="edge">
<title>n8&#45;&gt;n6</title>
<path fill="none" stroke="black" stroke-dasharray="5,2" d="M522.82,-720.5C495.47,-696.16 450,-647.75 450,-595 450,-595 450,-595 450,-377 450,-336.03 442.34,-325.57 426,-288 422,-278.8 416.58,-269.33 411.29,-260.98"/>
<polygon fill="black" stroke="black" points="414.09,-258.87 405.67,-252.43 408.24,-262.71 414.09,-258.87"/>
</g>
<!-- n11 -->
<g id="node24" class="node">
<title>n11</title>
<polygon fill="deepskyblue" stroke="black" points="556,-972 440.37,-954 556,-936 671.63,-954 556,-972"/>
<text text-anchor="middle" x="556" y="-950.3" font-family="Times,serif" font-size="14.00">11: MUL DOUBLE</text>
</g>
<!-- n8&#45;&gt;n11 -->
<g id="edge20" class="edge">
<title>n8&#45;&gt;n11</title>
<path fill="none" stroke="blue" d="M519.45,-755.15C509.93,-764.95 500.43,-778.2 496,-792 481.31,-837.71 480.8,-855.57 499,-900 504.12,-912.51 513.57,-923.97 523.43,-933"/>
<polygon fill="blue" stroke="blue" points="521.46,-935.92 531.36,-939.7 525.98,-930.57 521.46,-935.92"/>
</g>
<!-- n8&#45;&gt;n11 -->
<g id="edge21" class="edge">
<title>n8&#45;&gt;n11</title>
<path fill="none" stroke="blue" d="M534.51,-756.08C527.35,-765.78 518.3,-778.63 514,-792 499.31,-837.71 498.8,-855.57 517,-900 521.61,-911.26 529.73,-921.66 537.48,-930.22"/>
<polygon fill="blue" stroke="blue" points="534.98,-932.67 544.39,-937.53 540.07,-927.86 534.98,-932.67"/>
</g>
<!-- n8&#45;&gt;n24 -->
<g id="edge44" class="edge">
<title>n8&#45;&gt;n24</title>
<path fill="none" stroke="blue" d="M592.64,-724.81C643.88,-712.22 723.5,-692.67 775.69,-679.85"/>
<polygon fill="blue" stroke="blue" points="776.55,-683.24 785.43,-677.46 774.88,-676.44 776.55,-683.24"/>
</g>
<!-- n26&#45;&gt;n8 -->
<g id="edge14" class="edge">
<title>n26&#45;&gt;n8</title>
<path fill="none" stroke="blue" d="M611.18,-794.5C599.61,-785.08 584.28,-772.6 571.09,-761.87"/>
<polygon fill="blue" stroke="blue" points="573.17,-759.05 563.21,-755.45 568.75,-764.48 573.17,-759.05"/>
</g>
<!-- n9&#45;&gt;n6 -->
<g id="edge15" class="edge">
<title>n9&#45;&gt;n6</title>
<path fill="none" stroke="black" stroke-dasharray="5,2" d="M295.48,-647.9C298.71,-637.55 302.79,-624.08 306,-612 340.62,-481.87 374.37,-324.37 387.38,-262.16"/>
<polygon fill="black" stroke="black" points="390.88,-262.51 389.5,-252.01 384.03,-261.08 390.88,-262.51"/>
</g>
<!-- n9&#45;&gt;n10 -->
<g id="edge18" class="edge">
<title>n9&#45;&gt;n10</title>
<path fill="none" stroke="blue" d="M268.26,-649.81C257.13,-640.36 243.88,-628.04 233.41,-617.48"/>
<polygon fill="blue" stroke="blue" points="235.81,-614.93 226.35,-610.16 230.78,-619.79 235.81,-614.93"/>
</g>
<!-- n10&#45;&gt;n9 -->
<g id="edge17" class="edge">
<title>n10&#45;&gt;n9</title>
<path fill="none" stroke="blue" d="M235.1,-607.97C246.24,-617.24 260.06,-629.98 271.14,-641.06"/>
<polygon fill="blue" stroke="blue" points="268.82,-643.7 278.3,-648.41 273.83,-638.81 268.82,-643.7"/>
</g>
<!-- n10&#45;&gt;n17 -->
<g id="edge32" class="edge">
<title>n10&#45;&gt;n17</title>
<path fill="none" stroke="blue" d="M186.96,-582.46C166.17,-573.71 138.68,-559.54 120,-540 89.51,-508.1 76,-495.13 76,-451 76,-451 76,-451 76,-305 76,-193.99 89.52,-152.47 166,-72 177.96,-59.42 193.58,-49.04 208.69,-40.9"/>
<polygon fill="blue" stroke="blue" points="210.69,-43.8 217.99,-36.12 207.5,-37.58 210.69,-43.8"/>
</g>
<!-- n10&#45;&gt;n19 -->
<g id="edge34" class="edge">
<title>n10&#45;&gt;n19</title>
<path fill="none" stroke="blue" d="M216,-575.7C216,-567.98 216,-558.71 216,-550.11"/>
<polygon fill="blue" stroke="blue" points="219.5,-550.1 216,-540.1 212.5,-550.1 219.5,-550.1"/>
</g>
<!-- n13 -->
<g id="node26" class="node">
<title>n13</title>
<polygon fill="deepskyblue" stroke="black" points="862,-324 747.21,-306 862,-288 976.79,-306 862,-324"/>
<text text-anchor="middle" x="862" y="-302.3" font-family="Times,serif" font-size="14.00">13: ADD DOUBLE</text>
</g>
<!-- n11&#45;&gt;n13 -->
<g id="edge25" class="edge">
<title>n11&#45;&gt;n13</title>
<path fill="none" stroke="blue" d="M600.81,-942.9C707.21,-918.55 968.35,-856.53 997,-828 1035.27,-789.9 1066,-649 1066,-595 1066,-595 1066,-595 1066,-449 1066,-376.04 977,-337.51 916.58,-319.76"/>
<polygon fill="blue" stroke="blue" points="917.34,-316.34 906.77,-316.98 915.44,-323.07 917.34,-316.34"/>
</g>
<!-- n25 -->
<g id="node37" class="node">
<title>n25</title>
<polygon fill="deepskyblue" stroke="black" points="629,-900 516.73,-882 629,-864 741.27,-882 629,-900"/>
<text text-anchor="middle" x="629" y="-878.3" font-family="Times,serif" font-size="14.00">25: SUB DOUBLE</text>
</g>
<!-- n11&#45;&gt;n25 -->
<g id="edge45" class="edge">
<title>n11&#45;&gt;n25</title>
<path fill="none" stroke="blue" d="M571.48,-938.15C581.55,-928.5 594.85,-915.75 606.12,-904.94"/>
<polygon fill="blue" stroke="blue" points="608.75,-907.27 613.54,-897.82 603.9,-902.22 608.75,-907.27"/>
</g>
<!-- n12&#45;&gt;n13 -->
<g id="edge24" class="edge">
<title>n12&#45;&gt;n13</title>
<path fill="none" stroke="blue" d="M853.66,-360.05C854.91,-352.14 856.42,-342.54 857.81,-333.69"/>
<polygon fill="blue" stroke="blue" points="861.27,-334.21 859.36,-323.79 854.35,-333.12 861.27,-334.21"/>
</g>
<!-- n12&#45;&gt;n25 -->
<g id="edge46" class="edge">
<title>n12&#45;&gt;n25</title>
<path fill="none" stroke="blue" d="M870.37,-393.38C896.85,-414.33 943.3,-456.02 963,-504 1031.64,-671.18 986.18,-817.32 977,-828 959.76,-848.06 806.69,-865.23 709.38,-874.24"/>
<polygon fill="blue" stroke="blue" points="708.91,-870.77 699.27,-875.17 709.55,-877.74 708.91,-870.77"/>
</g>
<!-- n13&#45;&gt;n14 -->
<g id="edge26" class="edge">
<title>n13&#45;&gt;n14</title>
<path fill="none" stroke="blue" d="M824.13,-293.91C781.42,-281.4 712.07,-261.09 667,-247.89"/>
<polygon fill="blue" stroke="blue" points="667.79,-244.47 657.21,-245.02 665.82,-251.19 667.79,-244.47"/>
</g>
<!-- n14&#45;&gt;n15 -->
<g id="edge29" class="edge">
<title>n14&#45;&gt;n15</title>
<path fill="none" stroke="blue" d="M573.71,-226.02C524.82,-218.33 447.87,-204.17 374.15,-179.99"/>
<polygon fill="blue" stroke="blue" points="374.84,-176.53 364.25,-176.67 372.62,-183.16 374.84,-176.53"/>
</g>
<!-- n16 -->
<g id="node29" class="node">
<title>n16</title>
<polygon fill="lightcoral" stroke="black" points="383,-108 291,-108 291,-72 383,-72 383,-108"/>
<text text-anchor="middle" x="337" y="-86.3" font-family="Times,serif" font-size="14.00">16: IF_TRUE</text>
</g>
<!-- n15&#45;&gt;n16 -->
<g id="edge30" class="edge">
<title>n15&#45;&gt;n16</title>
<path fill="none" stroke="red" stroke-width="2" d="M337,-143.7C337,-135.98 337,-126.71 337,-118.11"/>
<polygon fill="red" stroke="red" stroke-width="2" points="340.5,-118.1 337,-108.1 333.5,-118.1 340.5,-118.1"/>
</g>
<!-- n18 -->
<g id="node31" class="node">
<title>n18</title>
<polygon fill="lightcoral" stroke="black" points="273,-108 175,-108 175,-72 273,-72 273,-108"/>
<text text-anchor="middle" x="224" y="-86.3" font-family="Times,serif" font-size="14.00">18: IF_FALSE</text>
</g>
<!-- n15&#45;&gt;n18 -->
<g id="edge33" class="edge">
<title>n15&#45;&gt;n18</title>
<path fill="none" stroke="red" stroke-width="2" d="M309.93,-144.23C295.06,-135.02 276.41,-123.47 260.29,-113.48"/>
<polygon fill="red" stroke="red" stroke-width="2" points="261.97,-110.41 251.63,-108.12 258.29,-116.36 261.97,-110.41"/>
</g>
<!-- n16&#45;&gt;n17 -->
<g id="edge31" class="edge">
<title>n16&#45;&gt;n17</title>
<path fill="none" stroke="red" stroke-width="2" d="M318.21,-71.7C308.83,-63.05 297.32,-52.45 287.09,-43.03"/>
<polygon fill="red" stroke="red" stroke-width="2" points="289.3,-40.3 279.57,-36.1 284.55,-45.45 289.3,-40.3"/>
</g>
<!-- n20 -->
<g id="node33" class="node">
<title>n20</title>
<polygon fill="lightcoral" stroke="black" points="237,-468 183,-468 183,-432 237,-432 237,-468"/>
<text text-anchor="middle" x="210" y="-446.3" font-family="Times,serif" font-size="14.00">20: IF</text>
</g>
<!-- n18&#45;&gt;n20 -->
<g id="edge36" class="edge">
<title>n18&#45;&gt;n20</title>
<path fill="none" stroke="red" stroke-width="2" d="M223.33,-108.09C221.09,-165.38 213.84,-350.9 211.08,-421.44"/>
<polygon fill="red" stroke="red" stroke-width="2" points="207.57,-421.6 210.68,-431.73 214.56,-421.88 207.57,-421.6"/>
</g>
<!-- n19&#45;&gt;n20 -->
<g id="edge37" class="edge">
<title>n19&#45;&gt;n20</title>
<path fill="none" stroke="blue" d="M214.55,-504.05C213.89,-496.35 213.09,-487.03 212.35,-478.36"/>
<polygon fill="blue" stroke="blue" points="215.82,-477.94 211.48,-468.28 208.85,-478.54 215.82,-477.94"/>
</g>
<!-- n21 -->
<g id="node34" class="node">
<title>n21</title>
<polygon fill="lightcoral" stroke="black" points="196,-252 104,-252 104,-216 196,-216 196,-252"/>
<text text-anchor="middle" x="150" y="-230.3" font-family="Times,serif" font-size="14.00">21: IF_TRUE</text>
</g>
<!-- n20&#45;&gt;n21 -->
<g id="edge38" class="edge">
<title>n20&#45;&gt;n21</title>
<path fill="none" stroke="red" stroke-width="2" d="M205.19,-431.85C194.79,-394.75 170.13,-306.81 157.6,-262.1"/>
<polygon fill="red" stroke="red" stroke-width="2" points="160.9,-260.92 154.83,-252.23 154.16,-262.81 160.9,-260.92"/>
</g>
<!-- n23 -->
<g id="node35" class="node">
<title>n23</title>
<polygon fill="lightcoral" stroke="black" points="339,-396 241,-396 241,-360 339,-360 339,-396"/>
<text text-anchor="middle" x="290" y="-374.3" font-family="Times,serif" font-size="14.00">23: IF_FALSE</text>
</g>
<!-- n20&#45;&gt;n23 -->
<g id="edge42" class="edge">
<title>n20&#45;&gt;n23</title>
<path fill="none" stroke="red" stroke-width="2" d="M229.78,-431.7C239.75,-422.97 252.01,-412.24 262.86,-402.75"/>
<polygon fill="red" stroke="red" stroke-width="2" points="265.23,-405.32 270.45,-396.1 260.62,-400.06 265.23,-405.32"/>
</g>
<!-- n21&#45;&gt;n22 -->
<g id="edge39" class="edge">
<title>n21&#45;&gt;n22</title>
<path fill="none" stroke="red" stroke-width="2" d="M144.07,-215.85C131.21,-178.68 100.7,-90.44 85.27,-45.82"/>
<polygon fill="red" stroke="red" stroke-width="2" points="88.53,-44.54 81.96,-36.23 81.92,-46.83 88.53,-44.54"/>
</g>
<!-- n23&#45;&gt;n29 -->
<g id="edge53" class="edge">
<title>n23&#45;&gt;n29</title>
<path fill="none" stroke="red" stroke-width="2" d="M290.49,-359.7C290.71,-351.98 290.98,-342.71 291.23,-334.11"/>
<polygon fill="red" stroke="red" stroke-width="2" points="294.72,-334.2 291.51,-324.1 287.73,-334 294.72,-334.2"/>
</g>
<!-- n27 -->
<g id="node38" class="node">
<title>n27</title>
<polygon fill="deepskyblue" stroke="black" points="839,-612 724.21,-594 839,-576 953.79,-594 839,-612"/>
<text text-anchor="middle" x="839" y="-590.3" font-family="Times,serif" font-size="14.00">27: ADD DOUBLE</text>
</g>
<!-- n24&#45;&gt;n27 -->
<g id="edge49" class="edge">
<title>n24&#45;&gt;n27</title>
<path fill="none" stroke="blue" d="M824.77,-648.41C825.16,-640.19 826.52,-630.06 828.4,-620.85"/>
<polygon fill="blue" stroke="blue" points="831.83,-621.52 830.71,-610.99 825.02,-619.92 831.83,-621.52"/>
</g>
<!-- n24&#45;&gt;n27 -->
<g id="edge50" class="edge">
<title>n24&#45;&gt;n27</title>
<path fill="none" stroke="blue" d="M836.26,-649.12C838.44,-641.11 840.27,-631.19 841.34,-622.03"/>
<polygon fill="blue" stroke="blue" points="844.85,-622.06 842.22,-611.8 837.88,-621.46 844.85,-622.06"/>
</g>
<!-- n25&#45;&gt;n26 -->
<g id="edge47" class="edge">
<title>n25&#45;&gt;n26</title>
<path fill="none" stroke="blue" d="M629,-863.7C629,-855.98 629,-846.71 629,-838.11"/>
<polygon fill="blue" stroke="blue" points="632.5,-838.1 629,-828.1 625.5,-838.1 632.5,-838.1"/>
</g>
<!-- n27&#45;&gt;n28 -->
<g id="edge51" class="edge">
<title>n27&#45;&gt;n28</title>
<path fill="none" stroke="blue" d="M839,-575.7C839,-567.98 839,-558.71 839,-550.11"/>
<polygon fill="blue" stroke="blue" points="842.5,-550.1 839,-540.1 835.5,-550.1 842.5,-550.1"/>
</g>
</g>
</svg>
