<?xml version="1.0" encoding="UTF-8" standalone="no"?>
<!DOCTYPE svg PUBLIC "-//W3C//DTD SVG 1.1//EN"
 "http://www.w3.org/Graphics/SVG/1.1/DTD/svg11.dtd">
<!-- Generated by graphviz version 5.0.0 (0)
 -->
<!-- Title: ir Pages: 1 -->
<svg width="1158pt" height="1052pt"
 viewBox="0.00 0.00 1158.28 1052.00" xmlns="http://www.w3.org/2000/svg" xmlns:xlink="http://www.w3.org/1999/xlink">
<g id="graph0" class="graph" transform="scale(1 1) rotate(0) translate(4 1048)">
<title>ir</title>
<polygon fill="white" stroke="transparent" points="-4,4 -4,-1048 1154.28,-1048 1154.28,4 -4,4"/>
<!-- c9 -->
<g id="node1" class="node">
<title>c9</title>
<ellipse fill="yellow" stroke="black" cx="91.64" cy="-1026" rx="91.78" ry="18"/>
<text text-anchor="middle" x="91.64" y="-1022.3" font-family="Times,serif" font-size="14.00">C9: CONST I32(1000)</text>
</g>
<!-- n19 -->
<g id="node32" class="node">
<title>n19</title>
<polygon fill="deepskyblue" stroke="black" points="331.64,-540 244.5,-522 331.64,-504 418.78,-522 331.64,-540"/>
<text text-anchor="middle" x="331.64" y="-518.3" font-family="Times,serif" font-size="14.00">19: GT BOOL</text>
</g>
<!-- c9&#45;&gt;n19 -->
<g id="edge35" class="edge">
<title>c9&#45;&gt;n19</title>
<path fill="none" stroke="blue" d="M93.06,-1007.98C95.32,-989.05 101.09,-958.23 115.64,-936 171.76,-850.29 212.52,-851.89 295.64,-792 367.35,-740.33 420.39,-761.64 462.64,-684 487.18,-638.9 457.68,-612.57 421.64,-576 406.5,-560.64 385.99,-548.1 368.38,-539.09"/>
<polygon fill="blue" stroke="blue" points="369.46,-535.73 358.95,-534.45 366.37,-542.01 369.46,-535.73"/>
</g>
<!-- c8 -->
<g id="node2" class="node">
<title>c8</title>
<ellipse fill="yellow" stroke="black" cx="742.64" cy="-306" rx="106.68" ry="18"/>
<text text-anchor="middle" x="742.64" y="-302.3" font-family="Times,serif" font-size="14.00">C8: CONST DOUBLE(16)</text>
</g>
<!-- n14 -->
<g id="node27" class="node">
<title>n14</title>
<polygon fill="deepskyblue" stroke="black" points="742.64,-252 655.5,-234 742.64,-216 829.78,-234 742.64,-252"/>
<text text-anchor="middle" x="742.64" y="-230.3" font-family="Times,serif" font-size="14.00">14: GT BOOL</text>
</g>
<!-- c8&#45;&gt;n14 -->
<g id="edge27" class="edge">
<title>c8&#45;&gt;n14</title>
<path fill="none" stroke="blue" d="M742.64,-287.7C742.64,-279.98 742.64,-270.71 742.64,-262.11"/>
<polygon fill="blue" stroke="blue" points="746.14,-262.1 742.64,-252.1 739.14,-262.1 746.14,-262.1"/>
</g>
<!-- c7 -->
<g id="node3" class="node">
<title>c7</title>
<ellipse fill="yellow" stroke="black" cx="260.64" cy="-666" rx="78.79" ry="18"/>
<text text-anchor="middle" x="260.64" y="-662.3" font-family="Times,serif" font-size="14.00">C7: CONST I32(1)</text>
</g>
<!-- n10 -->
<g id="node23" class="node">
<title>n10</title>
<polygon fill="deepskyblue" stroke="black" points="331.64,-612 250.87,-594 331.64,-576 412.41,-594 331.64,-612"/>
<text text-anchor="middle" x="331.64" y="-590.3" font-family="Times,serif" font-size="14.00">10: ADD I32</text>
</g>
<!-- c7&#45;&gt;n10 -->
<g id="edge19" class="edge">
<title>c7&#45;&gt;n10</title>
<path fill="none" stroke="blue" d="M277.47,-648.41C287.24,-638.78 299.64,-626.55 310.11,-616.23"/>
<polygon fill="blue" stroke="blue" points="312.67,-618.62 317.33,-609.11 307.75,-613.64 312.67,-618.62"/>
</g>
<!-- c6 -->
<g id="node4" class="node">
<title>c6</title>
<ellipse fill="yellow" stroke="black" cx="260.64" cy="-738" rx="78.79" ry="18"/>
<text text-anchor="middle" x="260.64" y="-734.3" font-family="Times,serif" font-size="14.00">C6: CONST I32(0)</text>
</g>
<!-- n22 -->
<g id="node11" class="node">
<title>n22</title>
<path fill="red" stroke="black" d="M297.64,-36C297.64,-36 229.64,-36 229.64,-36 223.64,-36 217.64,-30 217.64,-24 217.64,-24 217.64,-12 217.64,-12 217.64,-6 223.64,0 229.64,0 229.64,0 297.64,0 297.64,0 303.64,0 309.64,-6 309.64,-12 309.64,-12 309.64,-24 309.64,-24 309.64,-30 303.64,-36 297.64,-36"/>
<text text-anchor="middle" x="263.64" y="-14.3" font-family="Times,serif" font-size="14.00">22: RETURN</text>
</g>
<!-- c6&#45;&gt;n22 -->
<g id="edge40" class="edge">
<title>c6&#45;&gt;n22</title>
<path fill="none" stroke="blue" d="M221.7,-722.12C204.18,-713.52 184.76,-700.99 172.64,-684 149.16,-651.07 153.64,-635.45 153.64,-595 153.64,-595 153.64,-595 153.64,-161 153.64,-110.76 197.21,-67.52 229.5,-42.36"/>
<polygon fill="blue" stroke="blue" points="231.98,-44.88 237.85,-36.06 227.76,-39.29 231.98,-44.88"/>
</g>
<!-- n9 -->
<g id="node22" class="node">
<title>n9</title>
<ellipse fill="deepskyblue" stroke="black" cx="405.64" cy="-666" rx="48.19" ry="18"/>
<text text-anchor="middle" x="405.64" y="-662.3" font-family="Times,serif" font-size="14.00">9: PHI I32</text>
</g>
<!-- c6&#45;&gt;n9 -->
<g id="edge16" class="edge">
<title>c6&#45;&gt;n9</title>
<path fill="none" stroke="blue" d="M292.82,-721.46C315.11,-710.7 344.86,-696.34 368.22,-685.07"/>
<polygon fill="blue" stroke="blue" points="369.99,-688.1 377.47,-680.6 366.94,-681.8 369.99,-688.1"/>
</g>
<!-- c5 -->
<g id="node5" class="node">
<title>c5</title>
<ellipse fill="yellow" stroke="black" cx="972.64" cy="-810" rx="102.88" ry="18"/>
<text text-anchor="middle" x="972.64" y="-806.3" font-family="Times,serif" font-size="14.00">C5: CONST DOUBLE(0)</text>
</g>
<!-- n7 -->
<g id="node18" class="node">
<title>n7</title>
<ellipse fill="deepskyblue" stroke="black" cx="940.64" cy="-450" rx="72.29" ry="18"/>
<text text-anchor="middle" x="940.64" y="-446.3" font-family="Times,serif" font-size="14.00">7: PHI DOUBLE</text>
</g>
<!-- c5&#45;&gt;n7 -->
<g id="edge10" class="edge">
<title>c5&#45;&gt;n7</title>
<path fill="none" stroke="blue" d="M987.22,-791.91C994.96,-782.01 1004.01,-768.97 1009.64,-756 1025.76,-718.9 1028.64,-707.45 1028.64,-667 1028.64,-667 1028.64,-667 1028.64,-593 1028.64,-552.55 1031.23,-538.2 1009.64,-504 1001.73,-491.46 989.73,-480.74 977.96,-472.3"/>
<polygon fill="blue" stroke="blue" points="979.72,-469.26 969.48,-466.55 975.8,-475.06 979.72,-469.26"/>
</g>
<!-- n8 -->
<g id="node20" class="node">
<title>n8</title>
<ellipse fill="deepskyblue" stroke="black" cx="700.64" cy="-738" rx="72.29" ry="18"/>
<text text-anchor="middle" x="700.64" y="-734.3" font-family="Times,serif" font-size="14.00">8: PHI DOUBLE</text>
</g>
<!-- c5&#45;&gt;n8 -->
<g id="edge13" class="edge">
<title>c5&#45;&gt;n8</title>
<path fill="none" stroke="blue" d="M917.27,-794.75C871.16,-782.88 805.68,-766.03 758.81,-753.97"/>
<polygon fill="blue" stroke="blue" points="759.66,-750.57 749.1,-751.47 757.91,-757.35 759.66,-750.57"/>
</g>
<!-- c4 -->
<g id="node6" class="node">
<title>c4</title>
<ellipse fill="yellow" stroke="black" cx="551.64" cy="-954" rx="109.38" ry="18"/>
<text text-anchor="middle" x="551.64" y="-950.3" font-family="Times,serif" font-size="14.00">C4: CONST DOUBLE(0.5)</text>
</g>
<!-- n4 -->
<g id="node14" class="node">
<title>n4</title>
<polygon fill="deepskyblue" stroke="black" points="408.64,-900 301.9,-882 408.64,-864 515.39,-882 408.64,-900"/>
<text text-anchor="middle" x="408.64" y="-878.3" font-family="Times,serif" font-size="14.00">4: SUB DOUBLE</text>
</g>
<!-- c4&#45;&gt;n4 -->
<g id="edge5" class="edge">
<title>c4&#45;&gt;n4</title>
<path fill="none" stroke="blue" d="M518.48,-936.76C496,-925.76 466.34,-911.24 443.51,-900.07"/>
<polygon fill="blue" stroke="blue" points="445.02,-896.91 434.5,-895.66 441.94,-903.2 445.02,-896.91"/>
</g>
<!-- c3 -->
<g id="node7" class="node">
<title>c3</title>
<ellipse fill="yellow" stroke="black" cx="589.64" cy="-162" rx="90.98" ry="18"/>
<text text-anchor="middle" x="589.64" y="-158.3" font-family="Times,serif" font-size="14.00">C3: CONST BOOL(1)</text>
</g>
<!-- c2 -->
<g id="node8" class="node">
<title>c2</title>
<ellipse fill="yellow" stroke="black" cx="568.64" cy="-18" rx="90.98" ry="18"/>
<text text-anchor="middle" x="568.64" y="-14.3" font-family="Times,serif" font-size="14.00">C2: CONST BOOL(0)</text>
</g>
<!-- c1 -->
<g id="node9" class="node">
<title>c1</title>
<ellipse fill="yellow" stroke="black" cx="1058.64" cy="-882" rx="91.78" ry="18"/>
<text text-anchor="middle" x="1058.64" y="-878.3" font-family="Times,serif" font-size="14.00">C1: CONST ADDR(0)</text>
</g>
<!-- n1 -->
<g id="node10" class="node">
<title>n1</title>
<path fill="red" stroke="black" d="M263.64,-1044C263.64,-1044 213.64,-1044 213.64,-1044 207.64,-1044 201.64,-1038 201.64,-1032 201.64,-1032 201.64,-1020 201.64,-1020 201.64,-1014 207.64,-1008 213.64,-1008 213.64,-1008 263.64,-1008 263.64,-1008 269.64,-1008 275.64,-1014 275.64,-1020 275.64,-1020 275.64,-1032 275.64,-1032 275.64,-1038 269.64,-1044 263.64,-1044"/>
<text text-anchor="middle" x="238.64" y="-1022.3" font-family="Times,serif" font-size="14.00">1: START</text>
</g>
<!-- n1&#45;&gt;n22 -->
<g id="edge1" class="edge">
<title>n1&#45;&gt;n22</title>
<path fill="none" stroke="black" stroke-dasharray="5,2" d="M222.47,-1007.61C214.19,-997.82 204.62,-984.98 198.64,-972 126.87,-816.17 115.64,-766.57 115.64,-595 115.64,-595 115.64,-595 115.64,-161 115.64,-115.63 133.3,-103.82 165.64,-72 178.55,-59.3 195.12,-48.8 210.96,-40.59"/>
<polygon fill="black" stroke="black" points="212.76,-43.6 220.16,-36.02 209.65,-37.33 212.76,-43.6"/>
</g>
<!-- n5 -->
<g id="node15" class="node">
<title>n5</title>
<polygon fill="lightcoral" stroke="black" points="364.14,-828 305.14,-828 305.14,-792 364.14,-792 364.14,-828"/>
<text text-anchor="middle" x="334.64" y="-806.3" font-family="Times,serif" font-size="14.00">5: END</text>
</g>
<!-- n1&#45;&gt;n5 -->
<g id="edge6" class="edge">
<title>n1&#45;&gt;n5</title>
<path fill="none" stroke="red" stroke-width="2" d="M224.35,-1007.76C211.21,-989.69 195.23,-960.58 205.64,-936 224.32,-891.9 267,-855.73 298.18,-833.84"/>
<polygon fill="red" stroke="red" stroke-width="2" points="300.36,-836.59 306.63,-828.05 296.41,-830.82 300.36,-836.59"/>
</g>
<!-- n17 -->
<g id="node30" class="node">
<title>n17</title>
<path fill="red" stroke="black" d="M447.64,-36C447.64,-36 379.64,-36 379.64,-36 373.64,-36 367.64,-30 367.64,-24 367.64,-24 367.64,-12 367.64,-12 367.64,-6 373.64,0 379.64,0 379.64,0 447.64,0 447.64,0 453.64,0 459.64,-6 459.64,-12 459.64,-12 459.64,-24 459.64,-24 459.64,-30 453.64,-36 447.64,-36"/>
<text text-anchor="middle" x="413.64" y="-14.3" font-family="Times,serif" font-size="14.00">17: RETURN</text>
</g>
<!-- n22&#45;&gt;n17 -->
<g id="edge41" class="edge">
<title>n22&#45;&gt;n17</title>
<path fill="none" stroke="black" stroke-dasharray="5,2" d="M309.93,-18C325.66,-18 341.39,-18 357.12,-18"/>
<polygon fill="black" stroke="black" points="357.46,-21.5 367.46,-18 357.46,-14.5 357.46,-21.5"/>
</g>
<!-- n2 -->
<g id="node12" class="node">
<title>n2</title>
<ellipse fill="lightblue" stroke="black" cx="895.64" cy="-738" rx="104.78" ry="18"/>
<text text-anchor="middle" x="895.64" y="-734.3" font-family="Times,serif" font-size="14.00">2: PARAM DOUBLE &quot;x&quot;</text>
</g>
<!-- n2&#45;&gt;n1 -->
<g id="edge2" class="edge">
<title>n2&#45;&gt;n1</title>
<path fill="none" stroke="black" stroke-dasharray="5,2" d="M880.82,-755.83C873.18,-765.65 864.64,-778.69 860.64,-792 856.04,-807.32 856.68,-812.5 860.64,-828 880.59,-906.14 950.73,-938.39 919.64,-972 876.73,-1018.38 433.23,-1024.27 285.92,-1024.94"/>
<polygon fill="black" stroke="black" points="285.82,-1021.44 275.83,-1024.98 285.85,-1028.44 285.82,-1021.44"/>
</g>
<!-- n28 -->
<g id="node19" class="node">
<title>n28</title>
<polygon fill="deepskyblue" stroke="black" points="885.64,-540 770.85,-522 885.64,-504 1000.43,-522 885.64,-540"/>
<text text-anchor="middle" x="885.64" y="-518.3" font-family="Times,serif" font-size="14.00">28: ADD DOUBLE</text>
</g>
<!-- n2&#45;&gt;n28 -->
<g id="edge52" class="edge">
<title>n2&#45;&gt;n28</title>
<path fill="none" stroke="blue" d="M894.84,-719.85C893.11,-682.74 888.99,-594.75 886.91,-550.05"/>
<polygon fill="blue" stroke="blue" points="890.4,-549.76 886.43,-539.94 883.4,-550.09 890.4,-549.76"/>
</g>
<!-- n3 -->
<g id="node13" class="node">
<title>n3</title>
<ellipse fill="lightblue" stroke="black" cx="319.64" cy="-954" rx="104.78" ry="18"/>
<text text-anchor="middle" x="319.64" y="-950.3" font-family="Times,serif" font-size="14.00">3: PARAM DOUBLE &quot;y&quot;</text>
</g>
<!-- n3&#45;&gt;n1 -->
<g id="edge3" class="edge">
<title>n3&#45;&gt;n1</title>
<path fill="none" stroke="black" stroke-dasharray="5,2" d="M300.13,-971.86C290.03,-980.59 277.53,-991.4 266.44,-1000.98"/>
<polygon fill="black" stroke="black" points="263.94,-998.51 258.66,-1007.7 268.52,-1003.81 263.94,-998.51"/>
</g>
<!-- n3&#45;&gt;n4 -->
<g id="edge4" class="edge">
<title>n3&#45;&gt;n4</title>
<path fill="none" stroke="blue" d="M341.19,-936.05C353.59,-926.3 369.28,-913.96 382.4,-903.64"/>
<polygon fill="blue" stroke="blue" points="384.9,-906.13 390.59,-897.19 380.57,-900.63 384.9,-906.13"/>
</g>
<!-- n26 -->
<g id="node21" class="node">
<title>n26</title>
<polygon fill="deepskyblue" stroke="black" points="642.64,-828 527.85,-810 642.64,-792 757.43,-810 642.64,-828"/>
<text text-anchor="middle" x="642.64" y="-806.3" font-family="Times,serif" font-size="14.00">26: ADD DOUBLE</text>
</g>
<!-- n4&#45;&gt;n26 -->
<g id="edge48" class="edge">
<title>n4&#45;&gt;n26</title>
<path fill="none" stroke="blue" d="M445.2,-870.06C485.72,-857.94 551.16,-838.37 595.5,-825.1"/>
<polygon fill="blue" stroke="blue" points="596.6,-828.43 605.18,-822.21 594.59,-821.72 596.6,-828.43"/>
</g>
<!-- n6 -->
<g id="node16" class="node">
<title>n6</title>
<polygon fill="lightcoral" stroke="black" points="550.64,-252 436.64,-252 436.64,-216 550.64,-216 550.64,-252"/>
<text text-anchor="middle" x="493.64" y="-230.3" font-family="Times,serif" font-size="14.00">6: LOOP_BEGIN</text>
</g>
<!-- n5&#45;&gt;n6 -->
<g id="edge7" class="edge">
<title>n5&#45;&gt;n6</title>
<path fill="none" stroke="red" stroke-width="2" d="M364.56,-802.22C419.67,-787.76 531.64,-748.37 531.64,-667 531.64,-667 531.64,-667 531.64,-377 531.64,-335.63 516.41,-289.72 505.23,-261.61"/>
<polygon fill="red" stroke="red" stroke-width="2" points="508.36,-260.02 501.33,-252.09 501.89,-262.67 508.36,-260.02"/>
</g>
<!-- n15 -->
<g id="node28" class="node">
<title>n15</title>
<polygon fill="lightcoral" stroke="black" points="480.64,-180 426.64,-180 426.64,-144 480.64,-144 480.64,-180"/>
<text text-anchor="middle" x="453.64" y="-158.3" font-family="Times,serif" font-size="14.00">15: IF</text>
</g>
<!-- n6&#45;&gt;n15 -->
<g id="edge28" class="edge">
<title>n6&#45;&gt;n15</title>
<path fill="none" stroke="red" stroke-width="2" d="M483.75,-215.7C479.15,-207.64 473.58,-197.89 468.49,-188.98"/>
<polygon fill="red" stroke="red" stroke-width="2" points="471.42,-187.05 463.42,-180.1 465.34,-190.52 471.42,-187.05"/>
</g>
<!-- n29 -->
<g id="node17" class="node">
<title>n29</title>
<polygon fill="lightcoral" stroke="black" points="465.14,-324 358.14,-324 358.14,-288 465.14,-288 465.14,-324"/>
<text text-anchor="middle" x="411.64" y="-302.3" font-family="Times,serif" font-size="14.00">29: LOOP_END</text>
</g>
<!-- n29&#45;&gt;n6 -->
<g id="edge8" class="edge">
<title>n29&#45;&gt;n6</title>
<path fill="none" stroke="red" stroke-width="2" d="M426,-287.7C435.41,-278.88 447.96,-268.03 459.73,-258.47"/>
<polygon fill="red" stroke="red" stroke-width="2" points="462.08,-261.08 467.71,-252.1 457.71,-255.61 462.08,-261.08"/>
</g>
<!-- n29&#45;&gt;n6 -->
<g id="edge54" class="edge">
<title>n29&#45;&gt;n6</title>
<path fill="none" stroke="black" stroke-dasharray="5,2" d="M437.83,-287.7C448.85,-279.05 461.44,-268.45 471.94,-259.03"/>
<polygon fill="black" stroke="black" points="474.49,-261.44 479.5,-252.1 469.76,-256.28 474.49,-261.44"/>
</g>
<!-- n7&#45;&gt;n6 -->
<g id="edge9" class="edge">
<title>n7&#45;&gt;n6</title>
<path fill="none" stroke="black" stroke-dasharray="5,2" d="M895.14,-435.92C832.12,-416.71 715.95,-377.29 626.64,-324 605.24,-311.23 604.01,-302.37 583.64,-288 568.16,-277.07 550.32,-266.24 534.63,-257.24"/>
<polygon fill="black" stroke="black" points="536.1,-254.05 525.68,-252.16 532.65,-260.14 536.1,-254.05"/>
</g>
<!-- n12 -->
<g id="node25" class="node">
<title>n12</title>
<polygon fill="deepskyblue" stroke="black" points="978.64,-396 863.01,-378 978.64,-360 1094.27,-378 978.64,-396"/>
<text text-anchor="middle" x="978.64" y="-374.3" font-family="Times,serif" font-size="14.00">12: MUL DOUBLE</text>
</g>
<!-- n7&#45;&gt;n12 -->
<g id="edge22" class="edge">
<title>n7&#45;&gt;n12</title>
<path fill="none" stroke="blue" d="M944.12,-431.7C947.95,-422.98 953.59,-412.28 959.28,-402.81"/>
<polygon fill="blue" stroke="blue" points="962.34,-404.53 964.71,-394.2 956.42,-400.8 962.34,-404.53"/>
</g>
<!-- n7&#45;&gt;n12 -->
<g id="edge23" class="edge">
<title>n7&#45;&gt;n12</title>
<path fill="none" stroke="blue" d="M955.72,-432.05C960.96,-423.97 966.54,-414.12 971.02,-405.11"/>
<polygon fill="blue" stroke="blue" points="974.31,-406.33 975.39,-395.79 967.98,-403.36 974.31,-406.33"/>
</g>
<!-- n24 -->
<g id="node36" class="node">
<title>n24</title>
<polygon fill="deepskyblue" stroke="black" points="733.64,-684 618.01,-666 733.64,-648 849.27,-666 733.64,-684"/>
<text text-anchor="middle" x="733.64" y="-662.3" font-family="Times,serif" font-size="14.00">24: MUL DOUBLE</text>
</g>
<!-- n7&#45;&gt;n24 -->
<g id="edge43" class="edge">
<title>n7&#45;&gt;n24</title>
<path fill="none" stroke="blue" d="M871.82,-455.46C796.09,-464.6 678.52,-492.28 628.64,-576 620.45,-589.75 620.26,-598.37 628.64,-612 640.18,-630.76 660.64,-643.12 680.45,-651.14"/>
<polygon fill="blue" stroke="blue" points="679.48,-654.52 690.07,-654.74 681.93,-647.96 679.48,-654.52"/>
</g>
<!-- n28&#45;&gt;n7 -->
<g id="edge11" class="edge">
<title>n28&#45;&gt;n7</title>
<path fill="none" stroke="blue" d="M897.58,-505.81C904.39,-497.14 913.1,-486.05 920.91,-476.12"/>
<polygon fill="blue" stroke="blue" points="923.76,-478.15 927.19,-468.13 918.25,-473.83 923.76,-478.15"/>
</g>
<!-- n8&#45;&gt;n6 -->
<g id="edge12" class="edge">
<title>n8&#45;&gt;n6</title>
<path fill="none" stroke="black" stroke-dasharray="5,2" d="M663.74,-722.41C645.25,-713.57 623.65,-700.75 608.64,-684 579.82,-651.83 569.64,-638.19 569.64,-595 569.64,-595 569.64,-595 569.64,-377 569.64,-336.03 565.99,-323.56 545.64,-288 539.6,-277.44 530.95,-267.47 522.43,-259.08"/>
<polygon fill="black" stroke="black" points="524.73,-256.44 515.05,-252.14 519.94,-261.54 524.73,-256.44"/>
</g>
<!-- n11 -->
<g id="node24" class="node">
<title>n11</title>
<polygon fill="deepskyblue" stroke="black" points="794.64,-972 679.01,-954 794.64,-936 910.27,-954 794.64,-972"/>
<text text-anchor="middle" x="794.64" y="-950.3" font-family="Times,serif" font-size="14.00">11: MUL DOUBLE</text>
</g>
<!-- n8&#45;&gt;n11 -->
<g id="edge20" class="edge">
<title>n8&#45;&gt;n11</title>
<path fill="none" stroke="blue" d="M721.38,-755.35C733.87,-764.43 748.75,-776.94 757.64,-792 782.63,-834.33 786.62,-893.1 789.38,-926.68"/>
<polygon fill="blue" stroke="blue" points="785.89,-926.99 790.26,-936.64 792.86,-926.37 785.89,-926.99"/>
</g>
<!-- n8&#45;&gt;n11 -->
<g id="edge21" class="edge">
<title>n8&#45;&gt;n11</title>
<path fill="none" stroke="blue" d="M735.42,-754C750.35,-763.17 766.3,-776.18 775.64,-792 800.63,-834.33 804.62,-893.1 801.8,-926.68"/>
<polygon fill="blue" stroke="blue" points="798.32,-926.31 800.66,-936.64 805.27,-927.1 798.32,-926.31"/>
</g>
<!-- n8&#45;&gt;n24 -->
<g id="edge44" class="edge">
<title>n8&#45;&gt;n24</title>
<path fill="none" stroke="blue" d="M708.63,-720.05C712.54,-711.77 717.32,-701.62 721.66,-692.42"/>
<polygon fill="blue" stroke="blue" points="724.86,-693.84 725.95,-683.31 718.52,-690.86 724.86,-693.84"/>
</g>
<!-- n26&#45;&gt;n8 -->
<g id="edge14" class="edge">
<title>n26&#45;&gt;n8</title>
<path fill="none" stroke="blue" d="M655.23,-793.81C662.41,-785.14 671.6,-774.05 679.83,-764.12"/>
<polygon fill="blue" stroke="blue" points="682.77,-766.06 686.45,-756.13 677.38,-761.59 682.77,-766.06"/>
</g>
<!-- n9&#45;&gt;n6 -->
<g id="edge15" class="edge">
<title>n9&#45;&gt;n6</title>
<path fill="none" stroke="black" stroke-dasharray="5,2" d="M411.19,-647.92C414.45,-637.58 418.53,-624.1 421.64,-612 446.07,-516.94 449.59,-492.48 467.64,-396 476.39,-349.24 484.85,-294.51 489.64,-262.42"/>
<polygon fill="black" stroke="black" points="493.11,-262.85 491.12,-252.44 486.19,-261.82 493.11,-262.85"/>
</g>
<!-- n9&#45;&gt;n10 -->
<g id="edge18" class="edge">
<title>n9&#45;&gt;n10</title>
<path fill="none" stroke="blue" d="M383.91,-649.81C372.77,-640.36 359.52,-628.04 349.05,-617.48"/>
<polygon fill="blue" stroke="blue" points="351.45,-614.93 341.99,-610.16 346.42,-619.79 351.45,-614.93"/>
</g>
<!-- n10&#45;&gt;n9 -->
<g id="edge17" class="edge">
<title>n10&#45;&gt;n9</title>
<path fill="none" stroke="blue" d="M350.74,-607.97C361.88,-617.24 375.7,-629.98 386.78,-641.06"/>
<polygon fill="blue" stroke="blue" points="384.46,-643.7 393.94,-648.41 389.47,-638.81 384.46,-643.7"/>
</g>
<!-- n10&#45;&gt;n17 -->
<g id="edge32" class="edge">
<title>n10&#45;&gt;n17</title>
<path fill="none" stroke="blue" d="M302.6,-582.46C281.81,-573.71 254.32,-559.54 235.64,-540 205.16,-508.1 191.64,-495.13 191.64,-451 191.64,-451 191.64,-451 191.64,-161 191.64,-82.34 291.77,-45.29 357.54,-29.44"/>
<polygon fill="blue" stroke="blue" points="358.42,-32.82 367.37,-27.16 356.84,-26 358.42,-32.82"/>
</g>
<!-- n10&#45;&gt;n19 -->
<g id="edge34" class="edge">
<title>n10&#45;&gt;n19</title>
<path fill="none" stroke="blue" d="M331.64,-575.7C331.64,-567.98 331.64,-558.71 331.64,-550.11"/>
<polygon fill="blue" stroke="blue" points="335.14,-550.1 331.64,-540.1 328.14,-550.1 335.14,-550.1"/>
</g>
<!-- n13 -->
<g id="node26" class="node">
<title>n13</title>
<polygon fill="deepskyblue" stroke="black" points="981.64,-324 866.85,-306 981.64,-288 1096.43,-306 981.64,-324"/>
<text text-anchor="middle" x="981.64" y="-302.3" font-family="Times,serif" font-size="14.00">13: ADD DOUBLE</text>
</g>
<!-- n11&#45;&gt;n13 -->
<g id="edge25" class="edge">
<title>n11&#45;&gt;n13</title>
<path fill="none" stroke="blue" d="M815.64,-939.15C845.87,-919.77 903.92,-884.65 957.64,-864 1022.04,-839.25 1057,-873.75 1108.64,-828 1140.22,-800.03 1141.64,-781.19 1141.64,-739 1141.64,-739 1141.64,-739 1141.64,-449 1141.64,-405.99 1133.96,-390.51 1103.64,-360 1084.9,-341.14 1058.34,-328.52 1034.78,-320.35"/>
<polygon fill="blue" stroke="blue" points="1035.84,-317.01 1025.25,-317.22 1033.66,-323.66 1035.84,-317.01"/>
</g>
<!-- n25 -->
<g id="node37" class="node">
<title>n25</title>
<polygon fill="deepskyblue" stroke="black" points="645.64,-900 533.37,-882 645.64,-864 757.92,-882 645.64,-900"/>
<text text-anchor="middle" x="645.64" y="-878.3" font-family="Times,serif" font-size="14.00">25: SUB DOUBLE</text>
</g>
<!-- n11&#45;&gt;n25 -->
<g id="edge45" class="edge">
<title>n11&#45;&gt;n25</title>
<path fill="none" stroke="blue" d="M767.31,-940.16C743.37,-928.91 708.38,-912.48 682.06,-900.11"/>
<polygon fill="blue" stroke="blue" points="683.34,-896.84 672.8,-895.76 680.36,-903.18 683.34,-896.84"/>
</g>
<!-- n12&#45;&gt;n13 -->
<g id="edge24" class="edge">
<title>n12&#45;&gt;n13</title>
<path fill="none" stroke="blue" d="M979.37,-360.05C979.7,-352.35 980.1,-343.03 980.47,-334.36"/>
<polygon fill="blue" stroke="blue" points="983.97,-334.42 980.9,-324.28 976.98,-334.12 983.97,-334.42"/>
</g>
<!-- n12&#45;&gt;n25 -->
<g id="edge46" class="edge">
<title>n12&#45;&gt;n25</title>
<path fill="none" stroke="blue" d="M1003.04,-392.21C1039.42,-413.9 1103.64,-460.73 1103.64,-521 1103.64,-739 1103.64,-739 1103.64,-739 1103.64,-779.45 1114.5,-800.72 1084.64,-828 1059.28,-851.18 854.68,-867.86 733.95,-875.79"/>
<polygon fill="blue" stroke="blue" points="733.37,-872.32 723.61,-876.46 733.82,-879.31 733.37,-872.32"/>
</g>
<!-- n13&#45;&gt;n14 -->
<g id="edge26" class="edge">
<title>n13&#45;&gt;n14</title>
<path fill="none" stroke="blue" d="M943.77,-293.91C901.06,-281.4 831.71,-261.09 786.64,-247.89"/>
<polygon fill="blue" stroke="blue" points="787.43,-244.47 776.85,-245.02 785.46,-251.19 787.43,-244.47"/>
</g>
<!-- n14&#45;&gt;n15 -->
<g id="edge29" class="edge">
<title>n14&#45;&gt;n15</title>
<path fill="none" stroke="blue" d="M693.24,-226.17C643.69,-218.54 565.32,-204.36 490.47,-179.87"/>
<polygon fill="blue" stroke="blue" points="491.48,-176.52 480.89,-176.68 489.26,-183.16 491.48,-176.52"/>
</g>
<!-- n16 -->
<g id="node29" class="node">
<title>n16</title>
<polygon fill="lightcoral" stroke="black" points="499.64,-108 407.64,-108 407.64,-72 499.64,-72 499.64,-108"/>
<text text-anchor="middle" x="453.64" y="-86.3" font-family="Times,serif" font-size="14.00">16: IF_TRUE</text>
</g>
<!-- n15&#45;&gt;n16 -->
<g id="edge30" class="edge">
<title>n15&#45;&gt;n16</title>
<path fill="none" stroke="red" stroke-width="2" d="M453.64,-143.7C453.64,-135.98 453.64,-126.71 453.64,-118.11"/>
<polygon fill="red" stroke="red" stroke-width="2" points="457.14,-118.1 453.64,-108.1 450.14,-118.1 457.14,-118.1"/>
</g>
<!-- n18 -->
<g id="node31" class="node">
<title>n18</title>
<polygon fill="lightcoral" stroke="black" points="389.64,-108 291.64,-108 291.64,-72 389.64,-72 389.64,-108"/>
<text text-anchor="middle" x="340.64" y="-86.3" font-family="Times,serif" font-size="14.00">18: IF_FALSE</text>
</g>
<!-- n15&#45;&gt;n18 -->
<g id="edge33" class="edge">
<title>n15&#45;&gt;n18</title>
<path fill="none" stroke="red" stroke-width="2" d="M426.58,-144.23C411.7,-135.02 393.05,-123.47 376.93,-113.48"/>
<polygon fill="red" stroke="red" stroke-width="2" points="378.62,-110.41 368.27,-108.12 374.93,-116.36 378.62,-110.41"/>
</g>
<!-- n16&#45;&gt;n17 -->
<g id="edge31" class="edge">
<title>n16&#45;&gt;n17</title>
<path fill="none" stroke="red" stroke-width="2" d="M443.75,-71.7C439.15,-63.64 433.58,-53.89 428.49,-44.98"/>
<polygon fill="red" stroke="red" stroke-width="2" points="431.42,-43.05 423.42,-36.1 425.34,-46.52 431.42,-43.05"/>
</g>
<!-- n20 -->
<g id="node33" class="node">
<title>n20</title>
<polygon fill="lightcoral" stroke="black" points="356.64,-468 302.64,-468 302.64,-432 356.64,-432 356.64,-468"/>
<text text-anchor="middle" x="329.64" y="-446.3" font-family="Times,serif" font-size="14.00">20: IF</text>
</g>
<!-- n18&#45;&gt;n20 -->
<g id="edge36" class="edge">
<title>n18&#45;&gt;n20</title>
<path fill="none" stroke="red" stroke-width="2" d="M340.12,-108.09C338.36,-165.38 332.66,-350.9 330.49,-421.44"/>
<polygon fill="red" stroke="red" stroke-width="2" points="326.98,-421.63 330.17,-431.73 333.98,-421.85 326.98,-421.63"/>
</g>
<!-- n19&#45;&gt;n20 -->
<g id="edge37" class="edge">
<title>n19&#45;&gt;n20</title>
<path fill="none" stroke="blue" d="M331.16,-504.05C330.94,-496.35 330.67,-487.03 330.42,-478.36"/>
<polygon fill="blue" stroke="blue" points="333.92,-478.17 330.14,-468.28 326.92,-478.37 333.92,-478.17"/>
</g>
<!-- n21 -->
<g id="node34" class="node">
<title>n21</title>
<polygon fill="lightcoral" stroke="black" points="311.64,-252 219.64,-252 219.64,-216 311.64,-216 311.64,-252"/>
<text text-anchor="middle" x="265.64" y="-230.3" font-family="Times,serif" font-size="14.00">21: IF_TRUE</text>
</g>
<!-- n20&#45;&gt;n21 -->
<g id="edge38" class="edge">
<title>n20&#45;&gt;n21</title>
<path fill="none" stroke="red" stroke-width="2" d="M324.51,-431.85C313.4,-394.68 287.01,-306.44 273.66,-261.82"/>
<polygon fill="red" stroke="red" stroke-width="2" points="277.01,-260.81 270.8,-252.23 270.31,-262.82 277.01,-260.81"/>
</g>
<!-- n23 -->
<g id="node35" class="node">
<title>n23</title>
<polygon fill="lightcoral" stroke="black" points="458.64,-396 360.64,-396 360.64,-360 458.64,-360 458.64,-396"/>
<text text-anchor="middle" x="409.64" y="-374.3" font-family="Times,serif" font-size="14.00">23: IF_FALSE</text>
</g>
<!-- n20&#45;&gt;n23 -->
<g id="edge42" class="edge">
<title>n20&#45;&gt;n23</title>
<path fill="none" stroke="red" stroke-width="2" d="M349.42,-431.7C359.4,-422.97 371.65,-412.24 382.5,-402.75"/>
<polygon fill="red" stroke="red" stroke-width="2" points="384.87,-405.32 390.09,-396.1 380.26,-400.06 384.87,-405.32"/>
</g>
<!-- n21&#45;&gt;n22 -->
<g id="edge39" class="edge">
<title>n21&#45;&gt;n22</title>
<path fill="none" stroke="red" stroke-width="2" d="M265.48,-215.85C265.14,-178.83 264.32,-91.18 263.9,-46.39"/>
<polygon fill="red" stroke="red" stroke-width="2" points="267.4,-46.2 263.8,-36.23 260.4,-46.26 267.4,-46.2"/>
</g>
<!-- n23&#45;&gt;n29 -->
<g id="edge53" class="edge">
<title>n23&#45;&gt;n29</title>
<path fill="none" stroke="red" stroke-width="2" d="M410.14,-359.7C410.36,-351.98 410.62,-342.71 410.87,-334.11"/>
<polygon fill="red" stroke="red" stroke-width="2" points="414.37,-334.2 411.15,-324.1 407.37,-334 414.37,-334.2"/>
</g>
<!-- n27 -->
<g id="node38" class="node">
<title>n27</title>
<polygon fill="deepskyblue" stroke="black" points="752.64,-612 637.85,-594 752.64,-576 867.43,-594 752.64,-612"/>
<text text-anchor="middle" x="752.64" y="-590.3" font-family="Times,serif" font-size="14.00">27: ADD DOUBLE</text>
</g>
<!-- n24&#45;&gt;n27 -->
<g id="edge49" class="edge">
<title>n24&#45;&gt;n27</title>
<path fill="none" stroke="blue" d="M732.36,-648.05C733.74,-639.73 736.29,-629.54 739.25,-620.32"/>
<polygon fill="blue" stroke="blue" points="742.58,-621.42 742.59,-610.83 735.97,-619.1 742.58,-621.42"/>
</g>
<!-- n24&#45;&gt;n27 -->
<g id="edge50" class="edge">
<title>n24&#45;&gt;n27</title>
<path fill="none" stroke="blue" d="M743.58,-649.46C746.73,-641.39 749.76,-631.28 751.91,-621.98"/>
<polygon fill="blue" stroke="blue" points="755.38,-622.45 753.92,-611.96 748.52,-621.08 755.38,-622.45"/>
</g>
<!-- n25&#45;&gt;n26 -->
<g id="edge47" class="edge">
<title>n25&#45;&gt;n26</title>
<path fill="none" stroke="blue" d="M644.92,-864.05C644.59,-856.35 644.19,-847.03 643.81,-838.36"/>
<polygon fill="blue" stroke="blue" points="647.31,-838.12 643.38,-828.28 640.31,-838.42 647.31,-838.12"/>
</g>
<!-- n27&#45;&gt;n28 -->
<g id="edge51" class="edge">
<title>n27&#45;&gt;n28</title>
<path fill="none" stroke="blue" d="M777.66,-579.83C798.56,-568.83 828.56,-553.04 851.64,-540.9"/>
<polygon fill="blue" stroke="blue" points="853.52,-543.86 860.74,-536.11 850.26,-537.67 853.52,-543.86"/>
</g>
</g>
</svg>
